<svg xmlns="http://www.w3.org/2000/svg" fill="none" viewBox="0 0 48 48" id="Fork-Knife--Streamline-Plump.svg" height="48" width="48"><desc>Fork Knife Streamline Icon: https://streamlinehq.com</desc><g id="fork-knife--fork-spoon-knife-food-dine-cook-utensils-eat-restaurant-dining-kitchenware"><path id="Union" stroke="#212738" stroke-linecap="round" stroke-linejoin="round" d="M33.0638 2.3388C37.0508 5.3 42.6232 13.4639 43.1839 26.0717C43.242 27.3768 42.6066 28.6134 41.4209 29.1637C40.5747 29.5562 39.4305 30.0026 37.9894 30.3826C37.4626 30.5159 37.1191 31.0224 37.1899 31.5611L38.4628 40.4674C38.8158 42.9416 37.8471 45.1583 35.4363 45.8218C33.1832 46.4426 30.7703 44.9455 30.7703 42.6073V3.7581C30.7703 2.425 31.9933 1.5445 33.0638 2.3388Z" stroke-width="3"></path><path id="Union_2" stroke="#212738" stroke-linecap="round" stroke-linejoin="round" d="M22.4069 4.6427C22.8845 7.4648 23.5532 12.3955 23.4992 17.6606C23.4722 20.3778 21.6573 22.8126 18.8041 23.4521C18.2144 23.584 17.5862 23.7034 16.93 23.7958L18.8446 40.3874C19.1353 42.9125 17.5717 45.3888 15.0528 45.7294C14.7564 45.7729 14.4574 45.7972 14.1578 45.802C13.9055 45.802 13.5993 45.775 13.2618 45.7294C10.744 45.3888 9.1804 42.9125 9.4721 40.3874L11.3857 23.7958C10.757 23.7066 10.1321 23.5923 9.5126 23.4532C6.6584 22.8126 4.8435 20.3768 4.8154 17.6596C4.7625 12.3956 5.4291 7.4658 5.9067 4.6438C6.1496 3.2058 7.408 2.1945 8.8658 2.1945H19.4479C20.9066 2.1945 22.164 3.2047 22.4069 4.6427Z" stroke-width="3"></path><path id="Vector 1020" stroke="#212738" stroke-linecap="round" stroke-linejoin="round" d="M11.5622 2.1945L11.043 13.6155" stroke-width="3"></path><path id="Vector 1021" stroke="#212738" stroke-linecap="round" stroke-linejoin="round" d="M16.7535 2.1945L17.2727 13.6155" stroke-width="3"></path></g></svg>