<svg xmlns="http://www.w3.org/2000/svg" fill="none" viewBox="0 0 48 48" id="Ok-Hand--Streamline-Plump.svg" height="48" width="48"><desc>Ok Hand Streamline Icon: https://streamlinehq.com</desc><g id="ok-hand"><path id="Union" stroke="#212738" stroke-linecap="round" stroke-linejoin="round" d="M30.1513 7.3314C29.7461 6.491 29.4497 5.5304 29.8303 4.6786C30.6796 2.7777 32.6874 2.2186 34.0599 2.0655C34.9642 1.9646 35.8362 2.3407 36.439 3.0222C40.2059 7.2809 44.0131 16.5632 43.7783 27.1351C43.6217 34.1889 40.9527 39.0087 38.9144 41.6796C37.5432 43.4763 35.4781 44.5167 33.2565 44.9322C29.9274 45.5547 24.4932 46.2719 18.7278 45.7961C16.3693 45.6015 14.0303 44.9979 12.0246 43.742C7.9324 41.1799 5.0511 37.1582 4.2564 31.4499C3.97 29.3924 5.0664 27.3782 7.0626 26.8032C7.45 26.6916 7.8668 26.5919 8.3082 26.5139C9.9091 26.2314 11.1076 27.6646 11.6214 29.207C12.786 32.7033 16.0209 34.9237 19.2016 33.9727C19.8505 33.7216 20.4811 33.3428 21.0436 32.9384C22.5582 31.8492 23.2078 29.8435 22.3649 28.1792C20.8334 25.1554 17.7045 23.8346 13.9092 24.8169C12.1991 25.2594 10.2937 25.0753 9.2841 23.6259C9.0681 23.3161 8.8482 22.9787 8.6328 22.6168C7.4076 20.5574 8.2184 17.9248 10.3739 16.8778C14.3885 14.9277 18.7577 15.1174 22.9366 16.7297C21.2454 13.931 19.1937 11.3772 16.7858 9.4196C15.8162 8.6313 15.0211 7.5088 15.289 6.2882C15.6782 4.5139 16.8577 3.3814 17.8354 2.7232C18.71 2.1344 19.8289 2.1939 20.7548 2.6986C25.5448 5.3098 29.5731 9.7158 31.8792 12.6931C31.4855 10.7071 30.8888 8.8606 30.1514 7.3314Z" stroke-width="3"></path></g></svg>