<svg xmlns="http://www.w3.org/2000/svg" fill="none" viewBox="0 0 48 48" id="Memes-Comment-Reply--Streamline-Plump.svg" height="48" width="48"><desc>Memes Comment Reply Streamline Icon: https://streamlinehq.com</desc><g id="memes-comment-reply"><path id="Rectangle 1097" stroke="#212738" stroke-linecap="round" stroke-linejoin="round" d="M32.888 15.8851C31.1609 15.9596 29.8029 17.2193 29.7035 18.945C29.6571 19.752 29.6243 20.7408 29.6243 21.9259S29.6571 24.0999 29.7035 24.9068C29.8029 26.6326 31.1609 27.8922 32.888 27.9668C34.104 28.0192 35.7287 28.0616 37.8052 28.0616C39.8817 28.0616 41.5064 28.0192 42.7224 27.9668C44.4495 27.8922 45.8075 26.6326 45.9069 24.9068C45.9534 24.0999 45.9861 23.111 45.9861 21.9259S45.9534 19.752 45.9069 18.945C45.8075 17.2193 44.4495 15.9596 42.7224 15.8851C41.5064 15.8326 39.8817 15.7903 37.8052 15.7903C35.7287 15.7903 34.104 15.8326 32.888 15.8851Z" stroke-width="3"></path><path id="Subtract" stroke="#212738" stroke-linecap="round" stroke-linejoin="round" d="M44.6469 27.2917C44.8541 28.4675 44.9635 29.6771 44.9635 30.9138C44.9635 33.5435 44.9634 45.4457 23.4886 45.4457C2.0139 45.4457 2.0139 33.5435 2.0139 30.9138C2.0139 28.58 2.4037 26.343 3.1041 24.2476C3.0588 23.8307 3.0365 23.3974 3.0365 22.9481C3.0365 16.6176 3.0365 7.4072 6.0279 3.4915C6.5779 2.7716 7.4998 2.4726 8.4001 2.5733C12.7947 3.0648 16.2108 5.8451 18.6726 9.3174C20.2718 8.8691 21.8926 8.6318 23.4886 8.6318C25.0847 8.6318 26.7056 8.8691 28.3048 9.3175C30.7666 5.8452 34.1827 3.0648 38.5773 2.5733C39.4776 2.4726 40.3996 2.7716 40.9495 3.4915C42.9645 6.129 43.6221 11.1688 43.8369 16.1127" stroke-width="3"></path><path id="Rectangle 1098" stroke="#212738" stroke-linecap="round" stroke-linejoin="round" d="M11.4132 15.8851C9.6861 15.9596 8.3281 17.2193 8.2287 18.945C8.1823 19.752 8.1496 20.7408 8.1496 21.9259S8.1823 24.0999 8.2287 24.9068C8.3281 26.6326 9.6861 27.8922 11.4132 27.9668C12.6292 28.0192 14.2539 28.0616 16.3304 28.0616C18.4069 28.0616 20.0317 28.0192 21.2476 27.9668C22.9747 27.8922 24.3328 26.6326 24.4322 24.9068C24.4786 24.0999 24.5113 23.111 24.5113 21.9259S24.4786 19.752 24.4322 18.945C24.3328 17.2193 22.9747 15.9596 21.2476 15.8851C20.0317 15.8326 18.4069 15.7903 16.3304 15.7903C14.2539 15.7903 12.6292 15.8326 11.4132 15.8851Z" stroke-width="3"></path><path id="Ellipse 18" stroke="#212738" stroke-linecap="round" stroke-linejoin="round" d="M10.1519 35.2198C11.7091 36.9525 14.4773 38.5329 19.3983 39.0941" stroke-width="3"></path><path id="Vector 2112" stroke="#212738" stroke-linecap="round" stroke-linejoin="round" d="M29.6243 21.9259H24.5113" stroke-width="3"></path><path id="Vector 2113" stroke="#212738" stroke-linecap="round" stroke-linejoin="round" d="M8.1496 21.9259H3.0365" stroke-width="3"></path></g></svg>