<svg xmlns="http://www.w3.org/2000/svg" fill="none" viewBox="0 0 48 48" id="Hotel-Bed-5--Streamline-Plump.svg" height="48" width="48"><desc>Hotel Bed 5 Streamline Icon: https://streamlinehq.com</desc><g id="hotel-bed-5--bed-bedrooms-beds-bedroom-bunk-hotel"><path id="Ellipse 541" stroke="#212738" stroke-linecap="round" stroke-linejoin="round" d="M8.32 21.9088C8.3144 25.9322 12.6665 28.4529 16.1537 26.446C17.7766 25.512 18.7759 23.7812 18.7733 21.9088C18.7789 17.8853 14.4268 15.3646 10.9396 17.3715C9.3167 18.3055 8.3174 20.0363 8.32 21.9088" stroke-width="3"></path><path id="Rectangle 1672" stroke="#212738" stroke-linecap="round" stroke-linejoin="round" d="M19.0138 15.1277C19.1559 13.6998 20.3309 12.6325 21.764 12.5739C27.2301 12.3481 32.2801 12.6764 36.3349 13.1436C42.0383 13.8001 45.952 18.7937 45.952 24.5346V25.0448C45.952 26.1994 45.016 27.1354 43.8613 27.1354H21.0773C20.0643 27.1354 19.203 26.41 19.0869 25.4054C18.8792 23.5852 18.7745 21.7547 18.7733 19.9226C18.7733 18.0463 18.8883 16.3821 19.0138 15.1277Z" stroke-width="3"></path><path id="Union" stroke="#212738" stroke-linecap="round" stroke-linejoin="round" d="M6.2074 7.3086C7.3834 7.3943 8.0744 8.3571 8.1256 9.5351C8.2144 11.5788 8.32 15.7444 8.32 23.9994C8.32 25.1848 8.3179 26.2866 8.3137 27.309C10.7901 27.2253 15.4419 27.1354 24 27.1354H43.8425C45.0008 27.1354 45.9384 28.0783 45.9301 29.2365C45.8966 34.1203 45.8192 36.9072 45.7523 38.4627C45.7001 39.6407 45.0102 40.6045 43.8342 40.6892C43.1528 40.7378 42.4688 40.7381 41.7874 40.6903C40.6114 40.6045 39.9204 39.6408 39.8692 38.4627C39.8222 37.3943 39.772 35.7448 39.7333 33.2329C37.2695 33.3165 32.6125 33.4074 24 33.4074C15.3812 33.4074 10.7243 33.3165 8.2615 33.2329C8.24 34.977 8.1947 36.7208 8.1256 38.4637C8.0743 39.6418 7.3834 40.6045 6.2074 40.6903C5.9115 40.7112 5.5729 40.7248 5.184 40.7248S4.4565 40.7112 4.1606 40.6903C2.9846 40.6045 2.2936 39.6418 2.2424 38.4637C2.1536 36.4201 2.048 32.2544 2.048 23.9994C2.048 15.7455 2.1536 11.5788 2.2424 9.5351C2.2937 8.3571 2.9846 7.3943 4.1606 7.3086C4.4565 7.2877 4.7951 7.2741 5.184 7.2741S5.9116 7.2866 6.2074 7.3086Z" stroke-width="3"></path></g></svg>